<svg width="297" height="123" viewBox="0 0 297 123" fill="none" xmlns="http://www.w3.org/2000/svg">
<path d="M257.04 12.4747V0.51416H282.384V12.4747H274.09V90.5399H265.334V12.4747H257.04Z" fill="white"/>
<path d="M240.865 64.8186V78.451C240.865 78.8797 241.019 79.0941 241.326 79.0941H245.012C245.32 79.0941 245.473 78.8797 245.473 78.451V55.3015L238.193 50.8003C237.64 50.543 236.872 50.1143 235.889 49.5142C234.906 48.8283 234.015 47.8423 233.216 46.5562C232.479 45.2701 232.11 43.5125 232.11 41.2832V11.9606C232.11 8.35954 232.909 5.48728 234.506 3.34382C236.104 1.11461 238.193 0 240.773 0H245.565C248.146 0 250.235 1.11461 251.832 3.34382C253.43 5.48728 254.228 8.35954 254.228 11.9606V30.9946L245.473 29.9657V12.6036C245.473 12.1749 245.32 11.9606 245.012 11.9606H241.326C241.019 11.9606 240.865 12.1749 240.865 12.6036V39.4827L248.146 43.984C248.699 44.327 249.467 44.7985 250.45 45.3987C251.433 45.9989 252.293 46.942 253.03 48.2281C253.829 49.5142 254.228 51.2718 254.228 53.501V79.0941C254.228 82.6951 253.43 85.6102 251.832 87.8394C250.235 89.9829 248.146 91.0546 245.565 91.0546H240.773C238.193 91.0546 236.104 89.9829 234.506 87.8394C232.909 85.6102 232.11 82.6951 232.11 79.0941V64.8186H240.865Z" fill="white"/>
<path d="M229.36 78.5794L228.623 90.5399H208.44V12.4747H207.058L207.979 0.51416H229.36L228.439 12.4747H217.195V39.4825H227.517L226.595 51.443H217.195V78.5794H229.36Z" fill="white"/>
<path d="M204.311 79.0938C204.311 82.6948 203.512 85.6099 201.915 87.8391C200.317 89.9826 198.228 91.0544 195.648 91.0544H189.934C187.353 91.0544 185.264 89.9826 183.667 87.8391C182.069 85.6099 181.271 82.6948 181.271 79.0938V12.4747H179.888L180.81 0.51416H190.026V78.4507C190.026 78.8794 190.18 79.0938 190.487 79.0938H195.095C195.402 79.0938 195.556 78.8794 195.556 78.4507V0.771381H204.311V79.0938Z" fill="white"/>
<path d="M176.602 79.0941C176.602 81.5805 176.202 83.7668 175.404 85.6531C174.605 87.5393 173.499 88.9112 172.086 89.7685V90.5402H179.09L177.247 101.601H172.086C169.69 101.601 167.724 100.615 166.188 98.6425C164.713 96.7563 163.853 94.227 163.607 91.0546H161.303C158.723 91.0546 156.634 89.9829 155.036 87.8394C153.439 85.6102 152.64 82.6951 152.64 79.0941V11.9606C152.64 8.35954 153.439 5.48728 155.036 3.34382C156.634 1.11461 158.723 0 161.303 0H167.939C170.519 0 172.608 1.11461 174.205 3.34382C175.803 5.48728 176.602 8.35954 176.602 11.9606V79.0941ZM161.856 11.9606C161.549 11.9606 161.395 12.1749 161.395 12.6036V78.451C161.395 78.8797 161.549 79.0941 161.856 79.0941H167.386C167.693 79.0941 167.846 78.8797 167.846 78.451V12.6036C167.846 12.1749 167.693 11.9606 167.386 11.9606H161.856Z" fill="white"/>
<path d="M132.43 78.5794L131.693 90.5399H111.51V12.4747H110.128L111.049 0.51416H132.43L131.509 12.4747H120.265V39.4825H130.587L129.665 51.443H120.265V78.5794H132.43Z" fill="white"/>
<path d="M70.3908 90.5399V12.4747H69.0084L69.93 0.51416H84.3069L88.7306 48.9995L93.2464 0.51416H107.347V90.5399H98.5917V20.577L91.7719 77.6791H85.7815L79.146 22.1203V90.5399H70.3908Z" fill="white"/>
<path d="M49.1436 90.5399H40.3884L45.365 12.4747H43.7061L44.6277 0.51416H61.493L67.2069 90.5399H58.4517L57.438 75.1069H50.1573L49.1436 90.5399ZM50.8946 63.1464H56.7007L53.8437 18.3907L50.8946 63.1464Z" fill="white"/>
<path d="M37.6416 78.5794C37.6416 82.1804 36.8429 85.0955 35.2454 87.3247C33.648 89.4682 31.559 90.5399 28.9786 90.5399H22.343C19.7626 90.5399 17.6736 89.4682 16.0762 87.3247C14.4787 85.0955 13.68 82.1804 13.68 78.5794V12.4747C13.68 8.87369 14.4787 6.00144 16.0762 3.85798C17.6736 1.62877 19.7626 0.51416 22.343 0.51416H28.9786C31.559 0.51416 33.648 1.62877 35.2454 3.85798C36.8429 6.00144 37.6416 8.87369 37.6416 12.4747V33.052H28.8864V13.1178C28.8864 12.6891 28.7328 12.4747 28.4256 12.4747H22.896C22.5888 12.4747 22.4352 12.6891 22.4352 13.1178V77.9363C22.4352 78.365 22.5888 78.5794 22.896 78.5794H28.4256C28.7328 78.5794 28.8864 78.365 28.8864 77.9363V51.3144H25.2922L26.0294 39.3538H37.6416V78.5794Z" fill="white"/>
<path d="M176.602 79.0941C176.602 81.5805 176.202 83.7668 175.404 85.6531C174.605 87.5393 173.499 88.9112 172.086 89.7685V90.5402H179.09L177.247 101.601H172.086C169.69 101.601 167.724 100.615 166.188 98.6425C164.713 96.7563 163.853 94.227 163.607 91.0546H161.303C158.723 91.0546 156.634 89.9829 155.036 87.8394C153.439 85.6102 152.64 82.6951 152.64 79.0941V11.9606C152.64 8.35954 153.439 5.48728 155.036 3.34382C156.634 1.11461 158.723 0 161.303 0H167.939C170.519 0 172.608 1.11461 174.205 3.34382C175.803 5.48728 176.602 8.35954 176.602 11.9606V79.0941ZM161.856 11.9606C161.549 11.9606 161.395 12.1749 161.395 12.6036V78.451C161.395 78.8797 161.549 79.0941 161.856 79.0941H167.386C167.693 79.0941 167.846 78.8797 167.846 78.451V12.6036C167.846 12.1749 167.693 11.9606 167.386 11.9606H161.856Z" fill="white"/>
<path d="M37.6416 78.5794C37.6416 82.1804 36.8429 85.0955 35.2454 87.3247C33.648 89.4682 31.559 90.5399 28.9786 90.5399H22.343C19.7626 90.5399 17.6736 89.4682 16.0762 87.3247C14.4787 85.0955 13.68 82.1804 13.68 78.5794V12.4747C13.68 8.87369 14.4787 6.00144 16.0762 3.85798C17.6736 1.62877 19.7626 0.51416 22.343 0.51416H28.9786C31.559 0.51416 33.648 1.62877 35.2454 3.85798C36.8429 6.00144 37.6416 8.87369 37.6416 12.4747V33.052H28.8864V13.1178C28.8864 12.6891 28.7328 12.4747 28.4256 12.4747H22.896C22.5888 12.4747 22.4352 12.6891 22.4352 13.1178V77.9363C22.4352 78.365 22.5888 78.5794 22.896 78.5794H28.4256C28.7328 78.5794 28.8864 78.365 28.8864 77.9363V51.3144H25.2922L26.0294 39.3538H37.6416V78.5794Z" fill="white"/>
</svg>
