<svg width="413" height="170" viewBox="0 0 413 170" fill="none" xmlns="http://www.w3.org/2000/svg">
<path d="M1.5 163.28C1.32667 163.28 1.13333 163.233 0.92 163.14C0.693333 163.047 0.58 162.867 0.58 162.6C0.58 162.547 0.66 162.327 0.82 161.94C0.966667 161.54 1.21333 160.967 1.56 160.22L8.14 146.14C8.24667 145.913 8.39333 145.76 8.58 145.68C8.78 145.6 9.00667 145.56 9.26 145.56C9.51333 145.56 9.72667 145.6 9.9 145.68C10.0867 145.747 10.2067 145.9 10.26 146.14L13.68 162.6C13.7067 162.707 13.72 162.787 13.72 162.84C13.72 163.013 13.6467 163.127 13.5 163.18C13.3667 163.247 13.1867 163.28 12.96 163.28C12.7067 163.28 12.5067 163.24 12.36 163.16C12.2267 163.08 12.1333 162.927 12.08 162.7L11.2 158.5H4.06L2.74 161.4C2.47333 161.987 2.25333 162.447 2.08 162.78C1.92 163.113 1.72667 163.28 1.5 163.28ZM4.64 157.28H10.94L9.04 147.82L4.64 157.28ZM22.4294 163C22.1894 163 22.016 162.94 21.9094 162.82C21.8027 162.7 21.756 162.553 21.7694 162.38L23.6894 146.48C23.6894 146.267 23.7427 146.1 23.8494 145.98C23.956 145.86 24.0894 145.8 24.2494 145.8H31.9694C32.156 145.8 32.3027 145.847 32.4094 145.94C32.5294 146.02 32.5894 146.153 32.5894 146.34C32.5894 146.607 32.536 146.793 32.4294 146.9C32.3227 147.007 32.1294 147.06 31.8494 147.06H25.1294L24.4694 153.32H30.0094C30.2227 153.32 30.3894 153.36 30.5094 153.44C30.6427 153.52 30.7094 153.653 30.7094 153.84C30.7094 154.107 30.6494 154.3 30.5294 154.42C30.4227 154.527 30.2294 154.58 29.9494 154.58H24.2894L23.4094 161.72H30.5494C30.896 161.72 31.0694 161.92 31.0694 162.32C31.0694 162.533 31.016 162.7 30.9094 162.82C30.8027 162.94 30.6694 163 30.5094 163H22.4294ZM38.602 163.28C37.2287 163.28 36.1954 163.24 35.502 163.16C34.822 163.093 34.482 163.06 34.482 163.06C34.242 163.033 34.0487 162.973 33.902 162.88C33.7554 162.787 33.6954 162.633 33.722 162.42L35.662 146.26C35.6887 146.113 35.762 146 35.882 145.92C36.002 145.84 36.122 145.793 36.242 145.78C36.242 145.78 36.4554 145.76 36.882 145.72C37.322 145.68 37.8754 145.647 38.542 145.62C39.2087 145.58 39.882 145.56 40.562 145.56C42.8154 145.56 44.482 146.153 45.562 147.34C46.6554 148.527 47.2087 150.173 47.222 152.28C47.2354 153.76 47.0887 155.16 46.782 156.48C46.4754 157.8 45.982 158.973 45.302 160C44.622 161.013 43.7287 161.813 42.622 162.4C41.5287 162.987 40.1887 163.28 38.602 163.28ZM38.602 161.94C39.6287 161.94 40.5354 161.753 41.322 161.38C42.1087 161.007 42.7754 160.5 43.322 159.86C43.8687 159.207 44.3154 158.46 44.662 157.62C45.0087 156.767 45.2554 155.867 45.402 154.92C45.562 153.973 45.6354 153.02 45.622 152.06C45.622 151.033 45.4154 150.127 45.002 149.34C44.602 148.553 44.022 147.94 43.262 147.5C42.502 147.047 41.5754 146.82 40.482 146.82C39.962 146.82 39.402 146.833 38.802 146.86C38.202 146.873 37.6487 146.927 37.142 147.02L35.382 161.76C35.8887 161.827 36.4154 161.873 36.962 161.9C37.5087 161.927 38.0554 161.94 38.602 161.94ZM54.1689 163.28C52.9289 163.28 51.9489 163.093 51.2289 162.72C50.5222 162.333 50.0156 161.78 49.7089 161.06C49.4022 160.34 49.2489 159.487 49.2489 158.5C49.2489 158.193 49.2622 157.88 49.2889 157.56C49.3156 157.24 49.3489 156.907 49.3889 156.56L50.7089 146.08C50.7356 145.92 50.8222 145.793 50.9689 145.7C51.1156 145.607 51.2956 145.56 51.5089 145.56C51.7756 145.56 51.9556 145.607 52.0489 145.7C52.1556 145.793 52.2089 145.92 52.2089 146.08L50.9489 156.56C50.9089 156.893 50.8756 157.22 50.8489 157.54C50.8222 157.86 50.8089 158.16 50.8089 158.44C50.8089 159.16 50.9089 159.787 51.1089 160.32C51.3222 160.84 51.6822 161.247 52.1889 161.54C52.7089 161.82 53.4289 161.96 54.3489 161.96C55.2289 161.96 55.9356 161.833 56.4689 161.58C57.0156 161.313 57.4422 160.947 57.7489 160.48C58.0556 160 58.2889 159.433 58.4489 158.78C58.6089 158.113 58.7356 157.373 58.8289 156.56L60.1089 146.08C60.1356 145.92 60.2222 145.793 60.3689 145.7C60.5289 145.607 60.7156 145.56 60.9289 145.56C61.1956 145.56 61.3756 145.607 61.4689 145.7C61.5756 145.793 61.6289 145.92 61.6289 146.08L60.3689 156.56C60.2356 157.627 60.0489 158.58 59.8089 159.42C59.5822 160.247 59.2422 160.947 58.7889 161.52C58.3489 162.093 57.7556 162.533 57.0089 162.84C56.2622 163.133 55.3156 163.28 54.1689 163.28ZM69.6131 163.28C68.1998 163.28 67.0665 162.973 66.2131 162.36C65.3598 161.747 64.7398 160.92 64.3531 159.88C63.9798 158.84 63.7931 157.68 63.7931 156.4C63.7931 155.453 63.8731 154.473 64.0331 153.46C64.2065 152.447 64.4731 151.473 64.8331 150.54C65.2065 149.607 65.6865 148.767 66.2731 148.02C66.8731 147.26 67.5998 146.66 68.4531 146.22C69.3065 145.78 70.2998 145.56 71.4331 145.56C72.2731 145.56 72.9931 145.673 73.5931 145.9C74.1931 146.127 74.6865 146.4 75.0731 146.72C75.4598 147.027 75.7398 147.32 75.9131 147.6C76.0998 147.88 76.1931 148.073 76.1931 148.18C76.1931 148.313 76.0798 148.46 75.8531 148.62C75.6398 148.767 75.4465 148.84 75.2731 148.84C75.1398 148.84 74.9931 148.74 74.8331 148.54C74.6865 148.327 74.4865 148.087 74.2331 147.82C73.9798 147.54 73.6265 147.3 73.1731 147.1C72.7198 146.887 72.1198 146.78 71.3731 146.78C70.4798 146.78 69.6998 147 69.0331 147.44C68.3665 147.88 67.7998 148.46 67.3331 149.18C66.8665 149.9 66.4865 150.693 66.1931 151.56C65.9131 152.427 65.7065 153.293 65.5731 154.16C65.4531 155.013 65.3931 155.793 65.3931 156.5C65.3931 157.193 65.4731 157.867 65.6331 158.52C65.7931 159.173 66.0465 159.76 66.3931 160.28C66.7398 160.787 67.1865 161.193 67.7331 161.5C68.2931 161.793 68.9665 161.94 69.7531 161.94C70.5265 161.94 71.2465 161.8 71.9131 161.52C72.5931 161.227 73.1998 160.793 73.7331 160.22C73.8665 160.073 74.0065 159.9 74.1531 159.7C74.2998 159.487 74.4598 159.38 74.6331 159.38C74.7798 159.38 74.9198 159.433 75.0531 159.54C75.1998 159.647 75.2731 159.793 75.2731 159.98C75.2731 160.073 75.2265 160.193 75.1331 160.34C74.5198 161.313 73.7331 162.047 72.7731 162.54C71.8131 163.033 70.7598 163.28 69.6131 163.28ZM76.6758 163.28C76.5024 163.28 76.3091 163.233 76.0958 163.14C75.8691 163.047 75.7558 162.867 75.7558 162.6C75.7558 162.547 75.8358 162.327 75.9958 161.94C76.1424 161.54 76.3891 160.967 76.7358 160.22L83.3158 146.14C83.4224 145.913 83.5691 145.76 83.7558 145.68C83.9558 145.6 84.1824 145.56 84.4358 145.56C84.6891 145.56 84.9024 145.6 85.0758 145.68C85.2624 145.747 85.3824 145.9 85.4358 146.14L88.8558 162.6C88.8824 162.707 88.8958 162.787 88.8958 162.84C88.8958 163.013 88.8224 163.127 88.6758 163.18C88.5424 163.247 88.3624 163.28 88.1358 163.28C87.8824 163.28 87.6824 163.24 87.5358 163.16C87.4024 163.08 87.3091 162.927 87.2558 162.7L86.3758 158.5H79.2358L77.9158 161.4C77.6491 161.987 77.4291 162.447 77.2558 162.78C77.0958 163.113 76.9024 163.28 76.6758 163.28ZM79.8158 157.28H86.1158L84.2158 147.82L79.8158 157.28ZM96.8397 163.28C95.4264 163.28 94.293 162.973 93.4397 162.36C92.5864 161.747 91.9664 160.92 91.5797 159.88C91.2064 158.84 91.0197 157.68 91.0197 156.4C91.0197 155.453 91.0997 154.473 91.2597 153.46C91.433 152.447 91.6997 151.473 92.0597 150.54C92.433 149.607 92.913 148.767 93.4997 148.02C94.0997 147.26 94.8264 146.66 95.6797 146.22C96.533 145.78 97.5264 145.56 98.6597 145.56C99.4997 145.56 100.22 145.673 100.82 145.9C101.42 146.127 101.913 146.4 102.3 146.72C102.686 147.027 102.966 147.32 103.14 147.6C103.326 147.88 103.42 148.073 103.42 148.18C103.42 148.313 103.306 148.46 103.08 148.62C102.866 148.767 102.673 148.84 102.5 148.84C102.366 148.84 102.22 148.74 102.06 148.54C101.913 148.327 101.713 148.087 101.46 147.82C101.206 147.54 100.853 147.3 100.4 147.1C99.9464 146.887 99.3464 146.78 98.5997 146.78C97.7064 146.78 96.9264 147 96.2597 147.44C95.593 147.88 95.0264 148.46 94.5597 149.18C94.093 149.9 93.713 150.693 93.4197 151.56C93.1397 152.427 92.933 153.293 92.7997 154.16C92.6797 155.013 92.6197 155.793 92.6197 156.5C92.6197 157.193 92.6997 157.867 92.8597 158.52C93.0197 159.173 93.273 159.76 93.6197 160.28C93.9664 160.787 94.413 161.193 94.9597 161.5C95.5197 161.793 96.193 161.94 96.9797 161.94C97.753 161.94 98.473 161.8 99.1397 161.52C99.8197 161.227 100.426 160.793 100.96 160.22C101.093 160.073 101.233 159.9 101.38 159.7C101.526 159.487 101.686 159.38 101.86 159.38C102.006 159.38 102.146 159.433 102.28 159.54C102.426 159.647 102.5 159.793 102.5 159.98C102.5 160.073 102.453 160.193 102.36 160.34C101.746 161.313 100.96 162.047 99.9997 162.54C99.0397 163.033 97.9864 163.28 96.8397 163.28ZM96.1797 169.4C95.6864 169.4 95.2597 169.313 94.8997 169.14C94.5397 168.967 94.2597 168.747 94.0597 168.48C93.873 168.213 93.7797 167.953 93.7797 167.7C93.7797 167.54 93.8264 167.393 93.9197 167.26C94.013 167.127 94.1464 167.06 94.3197 167.06C94.3997 167.06 94.493 167.08 94.5997 167.12C94.7064 167.16 94.793 167.253 94.8597 167.4C94.9664 167.627 95.113 167.833 95.2997 168.02C95.4997 168.207 95.8197 168.3 96.2597 168.3C96.7264 168.3 97.093 168.16 97.3597 167.88C97.6264 167.6 97.7597 167.26 97.7597 166.86C97.7597 166.487 97.6664 166.2 97.4797 166C97.293 165.8 97.0597 165.66 96.7797 165.58C96.513 165.513 96.233 165.48 95.9397 165.48C95.6997 165.48 95.533 165.44 95.4397 165.36C95.3464 165.28 95.2997 165.167 95.2997 165.02C95.2997 164.873 95.333 164.68 95.3997 164.44L95.8197 163H96.7797L96.3597 164.42C96.7997 164.42 97.2197 164.493 97.6197 164.64C98.033 164.8 98.3664 165.047 98.6197 165.38C98.873 165.713 98.9997 166.153 98.9997 166.7C98.9997 167.327 98.8664 167.84 98.5997 168.24C98.333 168.64 97.9864 168.933 97.5597 169.12C97.133 169.307 96.673 169.4 96.1797 169.4ZM103.902 163.28C103.729 163.28 103.536 163.233 103.322 163.14C103.096 163.047 102.982 162.867 102.982 162.6C102.982 162.547 103.062 162.327 103.222 161.94C103.369 161.54 103.616 160.967 103.962 160.22L110.542 146.14C110.649 145.913 110.796 145.76 110.982 145.68C111.182 145.6 111.409 145.56 111.662 145.56C111.916 145.56 112.129 145.6 112.302 145.68C112.489 145.747 112.609 145.9 112.662 146.14L116.082 162.6C116.109 162.707 116.122 162.787 116.122 162.84C116.122 163.013 116.049 163.127 115.902 163.18C115.769 163.247 115.589 163.28 115.362 163.28C115.109 163.28 114.909 163.24 114.762 163.16C114.629 163.08 114.536 162.927 114.482 162.7L113.602 158.5H106.462L105.142 161.4C104.876 161.987 104.656 162.447 104.482 162.78C104.322 163.113 104.129 163.28 103.902 163.28ZM107.042 157.28H113.342L111.442 147.82L107.042 157.28ZM109.162 144.56C108.949 144.56 108.796 144.5 108.702 144.38C108.622 144.26 108.582 144.113 108.582 143.94C108.582 143.873 108.642 143.76 108.762 143.6C108.882 143.427 109.042 143.247 109.242 143.06C109.456 142.873 109.689 142.713 109.942 142.58C110.196 142.447 110.456 142.38 110.722 142.38C110.989 142.38 111.242 142.447 111.482 142.58C111.736 142.713 111.989 142.847 112.242 142.98C112.496 143.113 112.756 143.18 113.022 143.18C113.289 143.18 113.522 143.113 113.722 142.98C113.922 142.847 114.089 142.713 114.222 142.58C114.369 142.447 114.476 142.38 114.542 142.38C114.756 142.38 114.902 142.44 114.982 142.56C115.076 142.68 115.122 142.827 115.122 143C115.122 143.067 115.062 143.187 114.942 143.36C114.822 143.52 114.656 143.693 114.442 143.88C114.242 144.067 114.016 144.227 113.762 144.36C113.509 144.493 113.249 144.56 112.982 144.56C112.729 144.56 112.476 144.493 112.222 144.36C111.969 144.227 111.716 144.093 111.462 143.96C111.209 143.827 110.949 143.76 110.682 143.76C110.429 143.76 110.196 143.827 109.982 143.96C109.782 144.093 109.616 144.227 109.482 144.36C109.349 144.493 109.242 144.56 109.162 144.56ZM123.766 163.28C122.74 163.28 121.873 163.107 121.166 162.76C120.46 162.413 119.893 161.933 119.466 161.32C119.04 160.693 118.726 159.98 118.526 159.18C118.34 158.367 118.246 157.5 118.246 156.58C118.246 155.687 118.326 154.733 118.486 153.72C118.66 152.707 118.926 151.72 119.286 150.76C119.646 149.8 120.113 148.927 120.686 148.14C121.273 147.353 121.98 146.727 122.806 146.26C123.646 145.793 124.62 145.56 125.726 145.56C126.766 145.56 127.64 145.733 128.346 146.08C129.053 146.427 129.62 146.907 130.046 147.52C130.473 148.133 130.78 148.84 130.966 149.64C131.153 150.44 131.246 151.3 131.246 152.22C131.246 153.127 131.16 154.087 130.986 155.1C130.826 156.113 130.566 157.107 130.206 158.08C129.846 159.04 129.373 159.913 128.786 160.7C128.213 161.487 127.506 162.113 126.666 162.58C125.84 163.047 124.873 163.28 123.766 163.28ZM123.926 162C124.806 162 125.566 161.773 126.206 161.32C126.86 160.853 127.406 160.247 127.846 159.5C128.286 158.74 128.64 157.913 128.906 157.02C129.173 156.127 129.36 155.247 129.466 154.38C129.586 153.513 129.646 152.747 129.646 152.08C129.646 151.413 129.58 150.767 129.446 150.14C129.313 149.513 129.086 148.947 128.766 148.44C128.46 147.933 128.046 147.533 127.526 147.24C127.006 146.933 126.36 146.78 125.586 146.78C124.706 146.78 123.94 147.013 123.286 147.48C122.646 147.933 122.106 148.54 121.666 149.3C121.226 150.047 120.873 150.867 120.606 151.76C120.34 152.653 120.146 153.533 120.026 154.4C119.92 155.267 119.866 156.033 119.866 156.7C119.866 157.367 119.933 158.013 120.066 158.64C120.2 159.267 120.42 159.833 120.726 160.34C121.046 160.847 121.466 161.253 121.986 161.56C122.506 161.853 123.153 162 123.926 162ZM139.519 163C139.279 163 139.106 162.94 138.999 162.82C138.893 162.7 138.846 162.553 138.859 162.38L140.779 146.48C140.779 146.267 140.833 146.1 140.939 145.98C141.046 145.86 141.179 145.8 141.339 145.8H149.059C149.246 145.8 149.393 145.847 149.499 145.94C149.619 146.02 149.679 146.153 149.679 146.34C149.679 146.607 149.626 146.793 149.519 146.9C149.413 147.007 149.219 147.06 148.939 147.06H142.219L141.559 153.32H147.099C147.313 153.32 147.479 153.36 147.599 153.44C147.733 153.52 147.799 153.653 147.799 153.84C147.799 154.107 147.739 154.3 147.619 154.42C147.513 154.527 147.319 154.58 147.039 154.58H141.379L140.499 161.72H147.639C147.986 161.72 148.159 161.92 148.159 162.32C148.159 162.533 148.106 162.7 147.999 162.82C147.893 162.94 147.759 163 147.599 163H139.519ZM151.012 163.28C150.799 163.28 150.639 163.247 150.532 163.18C150.439 163.127 150.392 163.013 150.392 162.84V162.7L153.112 146.18C153.152 145.953 153.272 145.787 153.472 145.68C153.685 145.573 153.905 145.52 154.132 145.52H154.352C154.565 145.52 154.759 145.58 154.932 145.7C155.105 145.807 155.212 145.967 155.252 146.18L157.852 160.12L163.652 146.18C163.812 145.767 164.139 145.56 164.632 145.56H164.992C165.232 145.56 165.425 145.613 165.572 145.72C165.719 145.813 165.792 145.967 165.792 146.18L164.532 162.7C164.519 162.913 164.432 163.06 164.272 163.14C164.125 163.233 163.932 163.28 163.692 163.28C163.465 163.28 163.299 163.24 163.192 163.16C163.085 163.08 163.032 162.927 163.032 162.7L164.152 148.58L158.572 162.44C158.492 162.653 158.372 162.8 158.212 162.88C158.065 162.96 157.879 163 157.652 163C157.519 163 157.345 162.96 157.132 162.88C156.919 162.8 156.792 162.653 156.752 162.44L154.172 148.52L151.912 162.7C151.872 162.913 151.772 163.06 151.612 163.14C151.465 163.233 151.265 163.28 151.012 163.28ZM179.496 163.28C178.083 163.28 176.949 162.973 176.096 162.36C175.243 161.747 174.623 160.92 174.236 159.88C173.863 158.84 173.676 157.68 173.676 156.4C173.676 155.453 173.756 154.473 173.916 153.46C174.089 152.447 174.356 151.473 174.716 150.54C175.089 149.607 175.569 148.767 176.156 148.02C176.756 147.26 177.483 146.66 178.336 146.22C179.189 145.78 180.183 145.56 181.316 145.56C182.156 145.56 182.876 145.673 183.476 145.9C184.076 146.127 184.569 146.4 184.956 146.72C185.343 147.027 185.623 147.32 185.796 147.6C185.983 147.88 186.076 148.073 186.076 148.18C186.076 148.313 185.963 148.46 185.736 148.62C185.523 148.767 185.329 148.84 185.156 148.84C185.023 148.84 184.876 148.74 184.716 148.54C184.569 148.327 184.369 148.087 184.116 147.82C183.863 147.54 183.509 147.3 183.056 147.1C182.603 146.887 182.003 146.78 181.256 146.78C180.363 146.78 179.583 147 178.916 147.44C178.249 147.88 177.683 148.46 177.216 149.18C176.749 149.9 176.369 150.693 176.076 151.56C175.796 152.427 175.589 153.293 175.456 154.16C175.336 155.013 175.276 155.793 175.276 156.5C175.276 157.193 175.356 157.867 175.516 158.52C175.676 159.173 175.929 159.76 176.276 160.28C176.623 160.787 177.069 161.193 177.616 161.5C178.176 161.793 178.849 161.94 179.636 161.94C180.409 161.94 181.129 161.8 181.796 161.52C182.476 161.227 183.083 160.793 183.616 160.22C183.749 160.073 183.889 159.9 184.036 159.7C184.183 159.487 184.343 159.38 184.516 159.38C184.663 159.38 184.803 159.433 184.936 159.54C185.083 159.647 185.156 159.793 185.156 159.98C185.156 160.073 185.109 160.193 185.016 160.34C184.403 161.313 183.616 162.047 182.656 162.54C181.696 163.033 180.643 163.28 179.496 163.28ZM192.419 163.28C191.392 163.28 190.525 163.107 189.819 162.76C189.112 162.413 188.545 161.933 188.119 161.32C187.692 160.693 187.379 159.98 187.179 159.18C186.992 158.367 186.899 157.5 186.899 156.58C186.899 155.687 186.979 154.733 187.139 153.72C187.312 152.707 187.579 151.72 187.939 150.76C188.299 149.8 188.765 148.927 189.339 148.14C189.925 147.353 190.632 146.727 191.459 146.26C192.299 145.793 193.272 145.56 194.379 145.56C195.419 145.56 196.292 145.733 196.999 146.08C197.705 146.427 198.272 146.907 198.699 147.52C199.125 148.133 199.432 148.84 199.619 149.64C199.805 150.44 199.899 151.3 199.899 152.22C199.899 153.127 199.812 154.087 199.639 155.1C199.479 156.113 199.219 157.107 198.859 158.08C198.499 159.04 198.025 159.913 197.439 160.7C196.865 161.487 196.159 162.113 195.319 162.58C194.492 163.047 193.525 163.28 192.419 163.28ZM192.579 162C193.459 162 194.219 161.773 194.859 161.32C195.512 160.853 196.059 160.247 196.499 159.5C196.939 158.74 197.292 157.913 197.559 157.02C197.825 156.127 198.012 155.247 198.119 154.38C198.239 153.513 198.299 152.747 198.299 152.08C198.299 151.413 198.232 150.767 198.099 150.14C197.965 149.513 197.739 148.947 197.419 148.44C197.112 147.933 196.699 147.533 196.179 147.24C195.659 146.933 195.012 146.78 194.239 146.78C193.359 146.78 192.592 147.013 191.939 147.48C191.299 147.933 190.759 148.54 190.319 149.3C189.879 150.047 189.525 150.867 189.259 151.76C188.992 152.653 188.799 153.533 188.679 154.4C188.572 155.267 188.519 156.033 188.519 156.7C188.519 157.367 188.585 158.013 188.719 158.64C188.852 159.267 189.072 159.833 189.379 160.34C189.699 160.847 190.119 161.253 190.639 161.56C191.159 161.853 191.805 162 192.579 162ZM202.646 163.28C202.353 163.28 202.153 163.24 202.046 163.16C201.939 163.08 201.886 162.933 201.886 162.72C201.886 162.653 201.886 162.58 201.886 162.5C201.899 162.407 201.913 162.313 201.926 162.22L203.846 146.18C203.873 145.953 203.966 145.793 204.126 145.7C204.299 145.607 204.499 145.56 204.726 145.56H205.166C205.313 145.56 205.466 145.6 205.626 145.68C205.799 145.747 205.919 145.873 205.986 146.06L211.606 160.22L213.226 146.62C213.266 146.273 213.319 146.013 213.386 145.84C213.466 145.653 213.686 145.56 214.046 145.56C214.353 145.56 214.553 145.6 214.646 145.68C214.753 145.76 214.806 145.913 214.806 146.14C214.806 146.207 214.799 146.28 214.786 146.36C214.786 146.427 214.779 146.513 214.766 146.62L212.806 162.66C212.753 163.073 212.493 163.28 212.026 163.28H211.646C211.473 163.28 211.299 163.24 211.126 163.16C210.966 163.08 210.846 162.94 210.766 162.74L205.106 148.46L203.466 162.22C203.413 162.673 203.326 162.96 203.206 163.08C203.099 163.213 202.913 163.28 202.646 163.28ZM221.101 163.28C220.448 163.28 219.801 163.187 219.161 163C218.535 162.8 217.968 162.48 217.461 162.04C217.168 161.787 216.895 161.467 216.641 161.08C216.401 160.68 216.281 160.293 216.281 159.92C216.281 159.733 216.335 159.573 216.441 159.44C216.548 159.293 216.708 159.22 216.921 159.22C217.175 159.22 217.355 159.353 217.461 159.62C217.581 159.887 217.735 160.173 217.921 160.48C218.268 160.973 218.681 161.353 219.161 161.62C219.641 161.873 220.268 162 221.041 162C221.775 162 222.415 161.86 222.961 161.58C223.521 161.287 223.961 160.887 224.281 160.38C224.601 159.86 224.761 159.26 224.761 158.58C224.761 158.033 224.601 157.533 224.281 157.08C223.961 156.627 223.555 156.193 223.061 155.78C222.568 155.353 222.035 154.933 221.461 154.52C220.901 154.107 220.375 153.673 219.881 153.22C219.388 152.753 218.981 152.247 218.661 151.7C218.341 151.153 218.181 150.54 218.181 149.86C218.181 148.913 218.408 148.127 218.861 147.5C219.328 146.86 219.948 146.38 220.721 146.06C221.508 145.727 222.368 145.56 223.301 145.56C223.981 145.56 224.621 145.68 225.221 145.92C225.835 146.147 226.335 146.427 226.721 146.76C227.108 147.093 227.301 147.427 227.301 147.76C227.301 148.173 227.115 148.38 226.741 148.38C226.555 148.38 226.361 148.3 226.161 148.14C225.975 147.98 225.748 147.8 225.481 147.6C225.228 147.4 224.908 147.22 224.521 147.06C224.148 146.9 223.675 146.82 223.101 146.82C222.128 146.82 221.335 147.087 220.721 147.62C220.108 148.153 219.801 148.887 219.801 149.82C219.801 150.34 219.955 150.82 220.261 151.26C220.581 151.687 220.988 152.107 221.481 152.52C221.988 152.92 222.521 153.327 223.081 153.74C223.641 154.14 224.168 154.573 224.661 155.04C225.168 155.507 225.575 156.027 225.881 156.6C226.201 157.16 226.361 157.793 226.361 158.5C226.361 159.5 226.135 160.36 225.681 161.08C225.241 161.787 224.621 162.333 223.821 162.72C223.035 163.093 222.128 163.28 221.101 163.28ZM231.895 163.28C231.682 163.28 231.495 163.247 231.335 163.18C231.175 163.127 231.095 162.973 231.095 162.72C231.095 162.72 231.095 162.687 231.095 162.62C231.109 162.553 231.129 162.38 231.155 162.1C231.195 161.82 231.255 161.36 231.335 160.72C231.415 160.08 231.522 159.193 231.655 158.06C231.802 156.913 231.982 155.447 232.195 153.66C232.422 151.86 232.695 149.66 233.015 147.06H229.235C229.049 147.06 228.889 147.02 228.755 146.94C228.635 146.847 228.575 146.713 228.575 146.54C228.575 146.047 228.822 145.8 229.315 145.8H238.495C238.682 145.8 238.835 145.847 238.955 145.94C239.075 146.02 239.135 146.153 239.135 146.34C239.135 146.82 238.895 147.06 238.415 147.06H234.555L232.635 162.64C232.609 162.893 232.522 163.06 232.375 163.14C232.242 163.233 232.082 163.28 231.895 163.28ZM237.945 163.28C237.772 163.28 237.579 163.233 237.365 163.14C237.139 163.047 237.025 162.867 237.025 162.6C237.025 162.547 237.105 162.327 237.265 161.94C237.412 161.54 237.659 160.967 238.005 160.22L244.585 146.14C244.692 145.913 244.839 145.76 245.025 145.68C245.225 145.6 245.452 145.56 245.705 145.56C245.959 145.56 246.172 145.6 246.345 145.68C246.532 145.747 246.652 145.9 246.705 146.14L250.125 162.6C250.152 162.707 250.165 162.787 250.165 162.84C250.165 163.013 250.092 163.127 249.945 163.18C249.812 163.247 249.632 163.28 249.405 163.28C249.152 163.28 248.952 163.24 248.805 163.16C248.672 163.08 248.579 162.927 248.525 162.7L247.645 158.5H240.505L239.185 161.4C238.919 161.987 238.699 162.447 238.525 162.78C238.365 163.113 238.172 163.28 237.945 163.28ZM241.085 157.28H247.385L245.485 147.82L241.085 157.28ZM253.349 163.28C253.056 163.28 252.856 163.24 252.749 163.16C252.643 163.08 252.589 162.933 252.589 162.72C252.589 162.653 252.589 162.58 252.589 162.5C252.603 162.407 252.616 162.313 252.629 162.22L254.549 146.18C254.576 145.953 254.669 145.793 254.829 145.7C255.003 145.607 255.203 145.56 255.429 145.56H255.869C256.016 145.56 256.169 145.6 256.329 145.68C256.503 145.747 256.623 145.873 256.689 146.06L262.309 160.22L263.929 146.62C263.969 146.273 264.023 146.013 264.089 145.84C264.169 145.653 264.389 145.56 264.749 145.56C265.056 145.56 265.256 145.6 265.349 145.68C265.456 145.76 265.509 145.913 265.509 146.14C265.509 146.207 265.503 146.28 265.489 146.36C265.489 146.427 265.483 146.513 265.469 146.62L263.509 162.66C263.456 163.073 263.196 163.28 262.729 163.28H262.349C262.176 163.28 262.003 163.24 261.829 163.16C261.669 163.08 261.549 162.94 261.469 162.74L255.809 148.46L254.169 162.22C254.116 162.673 254.029 162.96 253.909 163.08C253.803 163.213 253.616 163.28 253.349 163.28ZM270.685 163.28C270.471 163.28 270.285 163.247 270.125 163.18C269.965 163.127 269.885 162.973 269.885 162.72C269.885 162.72 269.885 162.687 269.885 162.62C269.898 162.553 269.918 162.38 269.945 162.1C269.985 161.82 270.045 161.36 270.125 160.72C270.205 160.08 270.311 159.193 270.445 158.06C270.591 156.913 270.771 155.447 270.985 153.66C271.211 151.86 271.485 149.66 271.805 147.06H268.025C267.838 147.06 267.678 147.02 267.545 146.94C267.425 146.847 267.365 146.713 267.365 146.54C267.365 146.047 267.611 145.8 268.105 145.8H277.285C277.471 145.8 277.625 145.847 277.745 145.94C277.865 146.02 277.925 146.153 277.925 146.34C277.925 146.82 277.685 147.06 277.205 147.06H273.345L271.425 162.64C271.398 162.893 271.311 163.06 271.165 163.14C271.031 163.233 270.871 163.28 270.685 163.28ZM278.758 163C278.518 163 278.344 162.94 278.238 162.82C278.131 162.7 278.084 162.553 278.098 162.38L280.018 146.48C280.018 146.267 280.071 146.1 280.178 145.98C280.284 145.86 280.418 145.8 280.578 145.8H288.298C288.484 145.8 288.631 145.847 288.738 145.94C288.858 146.02 288.918 146.153 288.918 146.34C288.918 146.607 288.864 146.793 288.758 146.9C288.651 147.007 288.458 147.06 288.178 147.06H281.458L280.798 153.32H286.338C286.551 153.32 286.718 153.36 286.838 153.44C286.971 153.52 287.037 153.653 287.037 153.84C287.037 154.107 286.978 154.3 286.858 154.42C286.751 154.527 286.558 154.58 286.278 154.58H280.618L279.738 161.72H286.878C287.224 161.72 287.398 161.92 287.398 162.32C287.398 162.533 287.344 162.7 287.238 162.82C287.131 162.94 286.998 163 286.838 163H278.758ZM296.336 163C296.096 163 295.922 162.94 295.816 162.82C295.709 162.7 295.662 162.553 295.676 162.38L297.596 146.48C297.596 146.267 297.649 146.1 297.756 145.98C297.862 145.86 297.996 145.8 298.156 145.8H305.876C306.062 145.8 306.209 145.847 306.316 145.94C306.436 146.02 306.496 146.153 306.496 146.34C306.496 146.607 306.442 146.793 306.336 146.9C306.229 147.007 306.036 147.06 305.756 147.06H299.036L298.376 153.32H303.916C304.129 153.32 304.296 153.36 304.416 153.44C304.549 153.52 304.616 153.653 304.616 153.84C304.616 154.107 304.556 154.3 304.436 154.42C304.329 154.527 304.136 154.58 303.856 154.58H298.196L297.316 161.72H304.456C304.802 161.72 304.976 161.92 304.976 162.32C304.976 162.533 304.922 162.7 304.816 162.82C304.709 162.94 304.576 163 304.416 163H296.336ZM311.468 163.28C311.215 163.28 310.995 163.24 310.808 163.16C310.635 163.08 310.522 162.927 310.468 162.7L307.828 146.22C307.828 146.193 307.822 146.167 307.808 146.14C307.808 146.113 307.808 146.087 307.808 146.06C307.808 145.887 307.875 145.76 308.008 145.68C308.155 145.6 308.342 145.56 308.568 145.56C308.822 145.56 309.015 145.6 309.148 145.68C309.282 145.747 309.375 145.9 309.428 146.14L311.688 161.02L317.328 147.44C317.582 146.827 317.782 146.36 317.928 146.04C318.075 145.72 318.255 145.56 318.468 145.56C318.655 145.56 318.855 145.607 319.068 145.7C319.282 145.78 319.388 145.953 319.388 146.22C319.388 146.273 319.322 146.5 319.188 146.9C319.055 147.287 318.828 147.853 318.508 148.6L312.588 162.7C312.495 162.913 312.348 163.06 312.148 163.14C311.948 163.233 311.722 163.28 311.468 163.28ZM325.329 163.28C324.302 163.28 323.435 163.107 322.729 162.76C322.022 162.413 321.455 161.933 321.029 161.32C320.602 160.693 320.289 159.98 320.089 159.18C319.902 158.367 319.809 157.5 319.809 156.58C319.809 155.687 319.889 154.733 320.049 153.72C320.222 152.707 320.489 151.72 320.849 150.76C321.209 149.8 321.675 148.927 322.249 148.14C322.835 147.353 323.542 146.727 324.369 146.26C325.209 145.793 326.182 145.56 327.289 145.56C328.329 145.56 329.202 145.733 329.909 146.08C330.615 146.427 331.182 146.907 331.609 147.52C332.035 148.133 332.342 148.84 332.529 149.64C332.715 150.44 332.809 151.3 332.809 152.22C332.809 153.127 332.722 154.087 332.549 155.1C332.389 156.113 332.129 157.107 331.769 158.08C331.409 159.04 330.935 159.913 330.349 160.7C329.775 161.487 329.069 162.113 328.229 162.58C327.402 163.047 326.435 163.28 325.329 163.28ZM325.489 162C326.369 162 327.129 161.773 327.769 161.32C328.422 160.853 328.969 160.247 329.409 159.5C329.849 158.74 330.202 157.913 330.469 157.02C330.735 156.127 330.922 155.247 331.029 154.38C331.149 153.513 331.209 152.747 331.209 152.08C331.209 151.413 331.142 150.767 331.009 150.14C330.875 149.513 330.649 148.947 330.329 148.44C330.022 147.933 329.609 147.533 329.089 147.24C328.569 146.933 327.922 146.78 327.149 146.78C326.269 146.78 325.502 147.013 324.849 147.48C324.209 147.933 323.669 148.54 323.229 149.3C322.789 150.047 322.435 150.867 322.169 151.76C321.902 152.653 321.709 153.533 321.589 154.4C321.482 155.267 321.429 156.033 321.429 156.7C321.429 157.367 321.495 158.013 321.629 158.64C321.762 159.267 321.982 159.833 322.289 160.34C322.609 160.847 323.029 161.253 323.549 161.56C324.069 161.853 324.715 162 325.489 162ZM335.416 163C334.99 163 334.776 162.833 334.776 162.5V162.38L336.716 146.2C336.743 145.933 336.843 145.76 337.016 145.68C337.19 145.6 337.383 145.56 337.596 145.56C337.77 145.56 337.923 145.593 338.056 145.66C338.19 145.713 338.256 145.847 338.256 146.06V146.2L336.396 161.72H343.456C343.816 161.72 343.996 161.92 343.996 162.32C343.996 162.533 343.936 162.7 343.816 162.82C343.71 162.94 343.583 163 343.436 163H335.416ZM350.185 163.28C348.945 163.28 347.965 163.093 347.245 162.72C346.538 162.333 346.031 161.78 345.725 161.06C345.418 160.34 345.265 159.487 345.265 158.5C345.265 158.193 345.278 157.88 345.305 157.56C345.331 157.24 345.365 156.907 345.405 156.56L346.725 146.08C346.751 145.92 346.838 145.793 346.985 145.7C347.131 145.607 347.311 145.56 347.525 145.56C347.791 145.56 347.971 145.607 348.065 145.7C348.171 145.793 348.225 145.92 348.225 146.08L346.965 156.56C346.925 156.893 346.891 157.22 346.865 157.54C346.838 157.86 346.825 158.16 346.825 158.44C346.825 159.16 346.925 159.787 347.125 160.32C347.338 160.84 347.698 161.247 348.205 161.54C348.725 161.82 349.445 161.96 350.365 161.96C351.245 161.96 351.951 161.833 352.485 161.58C353.031 161.313 353.458 160.947 353.765 160.48C354.071 160 354.305 159.433 354.465 158.78C354.625 158.113 354.751 157.373 354.845 156.56L356.125 146.08C356.151 145.92 356.238 145.793 356.385 145.7C356.545 145.607 356.731 145.56 356.945 145.56C357.211 145.56 357.391 145.607 357.485 145.7C357.591 145.793 357.645 145.92 357.645 146.08L356.385 156.56C356.251 157.627 356.065 158.58 355.825 159.42C355.598 160.247 355.258 160.947 354.805 161.52C354.365 162.093 353.771 162.533 353.025 162.84C352.278 163.133 351.331 163.28 350.185 163.28ZM365.629 163.28C364.215 163.28 363.082 162.973 362.229 162.36C361.375 161.747 360.755 160.92 360.369 159.88C359.995 158.84 359.809 157.68 359.809 156.4C359.809 155.453 359.889 154.473 360.049 153.46C360.222 152.447 360.489 151.473 360.849 150.54C361.222 149.607 361.702 148.767 362.289 148.02C362.889 147.26 363.615 146.66 364.469 146.22C365.322 145.78 366.315 145.56 367.449 145.56C368.289 145.56 369.009 145.673 369.609 145.9C370.209 146.127 370.702 146.4 371.089 146.72C371.475 147.027 371.755 147.32 371.929 147.6C372.115 147.88 372.209 148.073 372.209 148.18C372.209 148.313 372.095 148.46 371.869 148.62C371.655 148.767 371.462 148.84 371.289 148.84C371.155 148.84 371.009 148.74 370.849 148.54C370.702 148.327 370.502 148.087 370.249 147.82C369.995 147.54 369.642 147.3 369.189 147.1C368.735 146.887 368.135 146.78 367.389 146.78C366.495 146.78 365.715 147 365.049 147.44C364.382 147.88 363.815 148.46 363.349 149.18C362.882 149.9 362.502 150.693 362.209 151.56C361.929 152.427 361.722 153.293 361.589 154.16C361.469 155.013 361.409 155.793 361.409 156.5C361.409 157.193 361.489 157.867 361.649 158.52C361.809 159.173 362.062 159.76 362.409 160.28C362.755 160.787 363.202 161.193 363.749 161.5C364.309 161.793 364.982 161.94 365.769 161.94C366.542 161.94 367.262 161.8 367.929 161.52C368.609 161.227 369.215 160.793 369.749 160.22C369.882 160.073 370.022 159.9 370.169 159.7C370.315 159.487 370.475 159.38 370.649 159.38C370.795 159.38 370.935 159.433 371.069 159.54C371.215 159.647 371.289 159.793 371.289 159.98C371.289 160.073 371.242 160.193 371.149 160.34C370.535 161.313 369.749 162.047 368.789 162.54C367.829 163.033 366.775 163.28 365.629 163.28ZM364.969 169.4C364.475 169.4 364.049 169.313 363.689 169.14C363.329 168.967 363.049 168.747 362.849 168.48C362.662 168.213 362.569 167.953 362.569 167.7C362.569 167.54 362.615 167.393 362.709 167.26C362.802 167.127 362.935 167.06 363.109 167.06C363.189 167.06 363.282 167.08 363.389 167.12C363.495 167.16 363.582 167.253 363.649 167.4C363.755 167.627 363.902 167.833 364.089 168.02C364.289 168.207 364.609 168.3 365.049 168.3C365.515 168.3 365.882 168.16 366.149 167.88C366.415 167.6 366.549 167.26 366.549 166.86C366.549 166.487 366.455 166.2 366.269 166C366.082 165.8 365.849 165.66 365.569 165.58C365.302 165.513 365.022 165.48 364.729 165.48C364.489 165.48 364.322 165.44 364.229 165.36C364.135 165.28 364.089 165.167 364.089 165.02C364.089 164.873 364.122 164.68 364.189 164.44L364.609 163H365.569L365.149 164.42C365.589 164.42 366.009 164.493 366.409 164.64C366.822 164.8 367.155 165.047 367.409 165.38C367.662 165.713 367.789 166.153 367.789 166.7C367.789 167.327 367.655 167.84 367.389 168.24C367.122 168.64 366.775 168.933 366.349 169.12C365.922 169.307 365.462 169.4 364.969 169.4ZM372.691 163.28C372.518 163.28 372.325 163.233 372.111 163.14C371.885 163.047 371.771 162.867 371.771 162.6C371.771 162.547 371.851 162.327 372.011 161.94C372.158 161.54 372.405 160.967 372.751 160.22L379.331 146.14C379.438 145.913 379.585 145.76 379.771 145.68C379.971 145.6 380.198 145.56 380.451 145.56C380.705 145.56 380.918 145.6 381.091 145.68C381.278 145.747 381.398 145.9 381.451 146.14L384.871 162.6C384.898 162.707 384.911 162.787 384.911 162.84C384.911 163.013 384.838 163.127 384.691 163.18C384.558 163.247 384.378 163.28 384.151 163.28C383.898 163.28 383.698 163.24 383.551 163.16C383.418 163.08 383.325 162.927 383.271 162.7L382.391 158.5H375.251L373.931 161.4C373.665 161.987 373.445 162.447 373.271 162.78C373.111 163.113 372.918 163.28 372.691 163.28ZM375.831 157.28H382.131L380.231 147.82L375.831 157.28ZM377.951 144.56C377.738 144.56 377.585 144.5 377.491 144.38C377.411 144.26 377.371 144.113 377.371 143.94C377.371 143.873 377.431 143.76 377.551 143.6C377.671 143.427 377.831 143.247 378.031 143.06C378.245 142.873 378.478 142.713 378.731 142.58C378.985 142.447 379.245 142.38 379.511 142.38C379.778 142.38 380.031 142.447 380.271 142.58C380.525 142.713 380.778 142.847 381.031 142.98C381.285 143.113 381.545 143.18 381.811 143.18C382.078 143.18 382.311 143.113 382.511 142.98C382.711 142.847 382.878 142.713 383.011 142.58C383.158 142.447 383.265 142.38 383.331 142.38C383.545 142.38 383.691 142.44 383.771 142.56C383.865 142.68 383.911 142.827 383.911 143C383.911 143.067 383.851 143.187 383.731 143.36C383.611 143.52 383.445 143.693 383.231 143.88C383.031 144.067 382.805 144.227 382.551 144.36C382.298 144.493 382.038 144.56 381.771 144.56C381.518 144.56 381.265 144.493 381.011 144.36C380.758 144.227 380.505 144.093 380.251 143.96C379.998 143.827 379.738 143.76 379.471 143.76C379.218 143.76 378.985 143.827 378.771 143.96C378.571 144.093 378.405 144.227 378.271 144.36C378.138 144.493 378.031 144.56 377.951 144.56ZM392.555 163.28C391.529 163.28 390.662 163.107 389.955 162.76C389.249 162.413 388.682 161.933 388.255 161.32C387.829 160.693 387.515 159.98 387.315 159.18C387.129 158.367 387.035 157.5 387.035 156.58C387.035 155.687 387.115 154.733 387.275 153.72C387.449 152.707 387.715 151.72 388.075 150.76C388.435 149.8 388.902 148.927 389.475 148.14C390.062 147.353 390.769 146.727 391.595 146.26C392.435 145.793 393.409 145.56 394.515 145.56C395.555 145.56 396.429 145.733 397.135 146.08C397.842 146.427 398.409 146.907 398.835 147.52C399.262 148.133 399.569 148.84 399.755 149.64C399.942 150.44 400.035 151.3 400.035 152.22C400.035 153.127 399.949 154.087 399.775 155.1C399.615 156.113 399.355 157.107 398.995 158.08C398.635 159.04 398.162 159.913 397.575 160.7C397.002 161.487 396.295 162.113 395.455 162.58C394.629 163.047 393.662 163.28 392.555 163.28ZM392.715 162C393.595 162 394.355 161.773 394.995 161.32C395.649 160.853 396.195 160.247 396.635 159.5C397.075 158.74 397.429 157.913 397.695 157.02C397.962 156.127 398.149 155.247 398.255 154.38C398.375 153.513 398.435 152.747 398.435 152.08C398.435 151.413 398.369 150.767 398.235 150.14C398.102 149.513 397.875 148.947 397.555 148.44C397.249 147.933 396.835 147.533 396.315 147.24C395.795 146.933 395.149 146.78 394.375 146.78C393.495 146.78 392.729 147.013 392.075 147.48C391.435 147.933 390.895 148.54 390.455 149.3C390.015 150.047 389.662 150.867 389.395 151.76C389.129 152.653 388.935 153.533 388.815 154.4C388.709 155.267 388.655 156.033 388.655 156.7C388.655 157.367 388.722 158.013 388.855 158.64C388.989 159.267 389.209 159.833 389.515 160.34C389.835 160.847 390.255 161.253 390.775 161.56C391.295 161.853 391.942 162 392.715 162Z" fill="#FF6F00"/>
<path d="M358 17.3258V0.713867H393.2V17.3258H381.68V125.75H369.52V17.3258H358Z" fill="#3C3FFF"/>
<path d="M335.535 90.0258V108.96C335.535 109.555 335.748 109.853 336.175 109.853H341.295C341.722 109.853 341.935 109.555 341.935 108.96V76.8077L331.823 70.5559C331.055 70.1987 329.988 69.6033 328.623 68.7697C327.258 67.817 326.02 66.4476 324.911 64.6614C323.887 62.8751 323.375 60.434 323.375 57.3378V16.6119C323.375 11.6105 324.484 7.62123 326.703 4.64419C328.922 1.54806 331.823 0 335.407 0H342.063C345.647 0 348.548 1.54806 350.767 4.64419C352.986 7.62123 354.095 11.6105 354.095 16.6119V43.048L341.935 41.6191V17.505C341.935 16.9096 341.722 16.6119 341.295 16.6119H336.175C335.748 16.6119 335.535 16.9096 335.535 17.505V54.8371L345.647 61.0889C346.415 61.5652 347.482 62.2202 348.847 63.0538C350.212 63.8873 351.407 65.1972 352.431 66.9835C353.54 68.7697 354.095 71.2109 354.095 74.307V109.853C354.095 114.854 352.986 118.903 350.767 121.999C348.548 124.976 345.647 126.465 342.063 126.465H335.407C331.823 126.465 328.922 124.976 326.703 121.999C324.484 118.903 323.375 114.854 323.375 109.853V90.0258H335.535Z" fill="#3C3FFF"/>
<path d="M319.556 109.138L318.532 125.75H290.5V17.3258H288.58L289.86 0.713867H319.556L318.276 17.3258H302.66V54.8365H316.996L315.716 71.4484H302.66V109.138H319.556Z" fill="#3C3FFF"/>
<path d="M284.765 109.852C284.765 114.854 283.656 118.902 281.437 121.999C279.218 124.976 276.317 126.464 272.733 126.464H264.797C261.213 126.464 258.312 124.976 256.093 121.999C253.874 118.902 252.765 114.854 252.765 109.852V17.3258H250.845L252.125 0.713867H264.925V108.959C264.925 109.555 265.138 109.852 265.565 109.852H271.965C272.392 109.852 272.605 109.555 272.605 108.959V1.07112H284.765V109.852Z" fill="#3C3FFF"/>
<path d="M246.28 109.853C246.28 113.306 245.725 116.343 244.616 118.963C243.507 121.582 241.971 123.488 240.008 124.679V125.75H249.736L247.176 141.112H240.008C236.68 141.112 233.949 139.742 231.816 137.003C229.768 134.384 228.573 130.871 228.232 126.465H225.032C221.448 126.465 218.547 124.976 216.328 121.999C214.109 118.903 213 114.854 213 109.853V16.6119C213 11.6105 214.109 7.62123 216.328 4.64419C218.547 1.54806 221.448 0 225.032 0H234.248C237.832 0 240.733 1.54806 242.952 4.64419C245.171 7.62123 246.28 11.6105 246.28 16.6119V109.853ZM225.8 16.6119C225.373 16.6119 225.16 16.9096 225.16 17.505V108.96C225.16 109.555 225.373 109.853 225.8 109.853H233.48C233.907 109.853 234.12 109.555 234.12 108.96V17.505C234.12 16.9096 233.907 16.6119 233.48 16.6119H225.8Z" fill="#3C3FFF"/>
<path d="M184.931 109.138L183.907 125.75H155.875V17.3258H153.955L155.235 0.713867H184.931L183.651 17.3258H168.035V54.8365H182.371L181.091 71.4484H168.035V109.138H184.931Z" fill="#3C3FFF"/>
<path d="M98.765 125.75V17.3258H96.845L98.125 0.713867H118.093L124.237 68.0546L130.509 0.713867H150.093V125.75H137.933V28.579L128.461 107.887H120.141L110.925 30.7225V125.75H98.765Z" fill="#3C3FFF"/>
<path d="M69.255 125.75H57.095L64.007 17.3258H61.703L62.983 0.713867H86.407L94.343 125.75H82.183L80.775 104.315H70.663L69.255 125.75ZM71.687 87.703H79.751L75.783 25.5424L71.687 87.703Z" fill="#3C3FFF"/>
<path d="M53.28 109.138C53.28 114.139 52.1707 118.188 49.952 121.284C47.7333 124.261 44.832 125.75 41.248 125.75H32.032C28.448 125.75 25.5467 124.261 23.328 121.284C21.1093 118.188 20 114.139 20 109.138V17.3258C20 12.3243 21.1093 8.3351 23.328 5.35806C25.5467 2.26193 28.448 0.713867 32.032 0.713867H41.248C44.832 0.713867 47.7333 2.26193 49.952 5.35806C52.1707 8.3351 53.28 12.3243 53.28 17.3258V45.9054H41.12V18.2189C41.12 17.6235 40.9067 17.3258 40.48 17.3258H32.8C32.3733 17.3258 32.16 17.6235 32.16 18.2189V108.245C32.16 108.84 32.3733 109.138 32.8 109.138H40.48C40.9067 109.138 41.12 108.84 41.12 108.245V71.2698H36.128L37.152 54.6579H53.28V109.138Z" fill="#3C3FFF"/>
<path d="M246.28 109.853C246.28 113.306 245.725 116.343 244.616 118.963C243.507 121.582 241.971 123.488 240.008 124.679V125.75H249.736L247.176 141.112H240.008C236.68 141.112 233.949 139.742 231.816 137.003C229.768 134.384 228.573 130.871 228.232 126.465H225.032C221.448 126.465 218.547 124.976 216.328 121.999C214.109 118.903 213 114.854 213 109.853V16.6119C213 11.6105 214.109 7.62123 216.328 4.64419C218.547 1.54806 221.448 0 225.032 0H234.248C237.832 0 240.733 1.54806 242.952 4.64419C245.171 7.62123 246.28 11.6105 246.28 16.6119V109.853ZM225.8 16.6119C225.373 16.6119 225.16 16.9096 225.16 17.505V108.96C225.16 109.555 225.373 109.853 225.8 109.853H233.48C233.907 109.853 234.12 109.555 234.12 108.96V17.505C234.12 16.9096 233.907 16.6119 233.48 16.6119H225.8Z" fill="#3C3FFF"/>
<path d="M53.28 109.138C53.28 114.139 52.1707 118.188 49.952 121.284C47.7333 124.261 44.832 125.75 41.248 125.75H32.032C28.448 125.75 25.5467 124.261 23.328 121.284C21.1093 118.188 20 114.139 20 109.138V17.3258C20 12.3243 21.1093 8.3351 23.328 5.35806C25.5467 2.26193 28.448 0.713867 32.032 0.713867H41.248C44.832 0.713867 47.7333 2.26193 49.952 5.35806C52.1707 8.3351 53.28 12.3243 53.28 17.3258V45.9054H41.12V18.2189C41.12 17.6235 40.9067 17.3258 40.48 17.3258H32.8C32.3733 17.3258 32.16 17.6235 32.16 18.2189V108.245C32.16 108.84 32.3733 109.138 32.8 109.138H40.48C40.9067 109.138 41.12 108.84 41.12 108.245V71.2698H36.128L37.152 54.6579H53.28V109.138Z" fill="#3C3FFF"/>
</svg>
